<?xml version="1.0" encoding="UTF-8"?>
<svg id="Layer_1" data-name="Layer 1" xmlns="http://www.w3.org/2000/svg" viewBox="0 0 544.16 544.16">
  <defs>
    <style>
      .cls-1 {
        fill: #197dfa;
        stroke-width: 0px;
      }
    </style>
  </defs>
  <path class="cls-1" d="m272.08,483.69c-56.57,0-109.69-21.99-149.67-61.98-39.95-39.95-61.97-93.1-61.94-149.64-.03-56.54,21.99-109.69,61.94-149.64s93.13-62.01,149.67-61.97c56.5,0,109.65,22.03,149.6,61.97,19.97,19.97,35.47,43.27,45.97,68.61,10.5,25.34,16.01,52.74,16.04,81.03,0,46.31-14.78,90.36-42.17,126.72l43.13,43.13c16.14-20.11,29.21-42.21,38.92-65.67,13.51-32.59,20.59-67.86,20.59-104.18-.03-72.68-28.32-140.98-79.73-192.39C413.06,28.32,344.73,0,272.08,0S131.06,28.29,79.66,79.69C28.29,131.06-.03,199.4,0,272.08c-.03,72.68,28.29,141.02,79.66,192.39,51.41,51.41,119.71,79.69,192.42,79.69,62.45,0,121.76-20.93,169.82-59.48l-43.13-43.13c-36.36,27.33-80.38,42.14-126.69,42.14Z"/>
  <path class="cls-1" d="m346.88,389.67l51.89,51.89c8.04-5.99,15.7-12.62,22.92-19.84,7.22-7.22,13.85-14.88,19.84-22.92l-51.89-51.89-42.75,42.75Z"/>
  <path class="cls-1" d="m464.43,464.47c-7.18,7.18-14.71,13.95-22.54,20.21l54.62,54.62,42.75-42.75-54.62-54.62c-6.26,7.83-13.03,15.36-20.21,22.54Z"/>
</svg>